HIERARCHY
ROOT mixamorig:Hips
{
	OFFSET 0.000000 201.639420 0.000000
	CHANNELS 6 Xposition Yposition Zposition Xrotation Yrotation Zrotation
	JOINT mixamorig:Spine
	{
		OFFSET 0.006200 19.524994 -2.481800
		CHANNELS 3 Xrotation Yrotation Zrotation
		JOINT mixamorig:Spine1
		{
			OFFSET -0.000900 22.835007 -2.825400
			CHANNELS 3 Xrotation Yrotation Zrotation
			JOINT mixamorig:Spine2
			{
				OFFSET -0.020600 26.552490 -3.193300
				CHANNELS 3 Xrotation Yrotation Zrotation
				JOINT mixamorig:Neck
				{
					OFFSET -0.060000 30.701813 1.352200
					CHANNELS 3 Xrotation Yrotation Zrotation
					JOINT mixamorig:Head
					{
						OFFSET -0.087200 22.547607 3.670900
						CHANNELS 3 Xrotation Yrotation Zrotation
						JOINT mixamorig:HeadTop_End
						{
							OFFSET -0.830600 40.355194 7.893500
							CHANNELS 3 Xrotation Yrotation Zrotation
							End Site
							{
								OFFSET 0.000000 30.592346 0.000000
							}
						}
						JOINT mixamorig:RightEye
						{
							OFFSET -6.302100 18.118591 16.197100
							CHANNELS 3 Xrotation Yrotation Zrotation
							End Site
							{
								OFFSET 0.000000 30.592346 0.000000
							}
						}
						JOINT mixamorig:LeftEye
						{
							OFFSET 6.741500 18.382690 16.401899
							CHANNELS 3 Xrotation Yrotation Zrotation
							End Site
							{
								OFFSET 0.000000 30.592346 0.000000
							}
						}
					}
				}
				JOINT mixamorig:LeftShoulder
				{
					OFFSET 11.924900 18.230499 1.425400
					CHANNELS 3 Xrotation Yrotation Zrotation
					JOINT mixamorig:LeftArm
					{
						OFFSET 25.435989 -0.697632 -5.229300
						CHANNELS 3 Xrotation Yrotation Zrotation
						JOINT mixamorig:LeftForeArm
						{
							OFFSET 54.684776 0.000000 0.000000
							CHANNELS 3 Xrotation Yrotation Zrotation
							JOINT mixamorig:LeftHand
							{
								OFFSET 55.098175 0.000000 0.000000
								CHANNELS 3 Xrotation Yrotation Zrotation
								JOINT mixamorig:LeftHandMiddle1
								{
									OFFSET 23.369751 0.000000 0.000000
									CHANNELS 3 Xrotation Yrotation Zrotation
									JOINT mixamorig:LeftHandMiddle2
									{
										OFFSET 6.378677 0.000000 0.000000
										CHANNELS 3 Xrotation Yrotation Zrotation
										JOINT mixamorig:LeftHandMiddle3
										{
											OFFSET 6.148331 0.000000 0.000000
											CHANNELS 3 Xrotation Yrotation Zrotation
											JOINT mixamorig:LeftHandMiddle4
											{
												OFFSET 6.582504 0.000000 0.000000
												CHANNELS 3 Xrotation Yrotation Zrotation
												End Site
												{
													OFFSET -1.168900 6.395691 1.028606
												}
											}
										}
									}
								}
								JOINT mixamorig:LeftHandThumb1
								{
									OFFSET 7.235672 -3.848206 5.434273
									CHANNELS 3 Xrotation Yrotation Zrotation
									JOINT mixamorig:LeftHandThumb2
									{
										OFFSET 6.568451 -3.792297 3.792300
										CHANNELS 3 Xrotation Yrotation Zrotation
										JOINT mixamorig:LeftHandThumb3
										{
											OFFSET 6.063080 -3.500519 3.500518
											CHANNELS 3 Xrotation Yrotation Zrotation
											JOINT mixamorig:LeftHandThumb4
											{
												OFFSET 4.793182 -2.767334 2.767349
												CHANNELS 3 Xrotation Yrotation Zrotation
												End Site
												{
													OFFSET 0.101639 6.054260 1.275483
												}
											}
										}
									}
								}
								JOINT mixamorig:LeftHandIndex1
								{
									OFFSET 23.101074 -0.309540 4.992809
									CHANNELS 3 Xrotation Yrotation Zrotation
									JOINT mixamorig:LeftHandIndex2
									{
										OFFSET 6.226883 0.000000 0.000000
										CHANNELS 3 Xrotation Yrotation Zrotation
										JOINT mixamorig:LeftHandIndex3
										{
											OFFSET 6.094330 0.000000 0.000000
											CHANNELS 3 Xrotation Yrotation Zrotation
											JOINT mixamorig:LeftHandIndex4
											{
												OFFSET 5.482605 0.000000 0.000000
												CHANNELS 3 Xrotation Yrotation Zrotation
												End Site
												{
													OFFSET -1.427902 5.233032 0.797164
												}
											}
										}
									}
								}
								JOINT mixamorig:LeftHandRing1
								{
									OFFSET 22.299240 0.021149 -3.964172
									CHANNELS 3 Xrotation Yrotation Zrotation
									JOINT mixamorig:LeftHandRing2
									{
										OFFSET 6.321869 0.000000 0.000000
										CHANNELS 3 Xrotation Yrotation Zrotation
										JOINT mixamorig:LeftHandRing3
										{
											OFFSET 5.899796 0.000000 0.000000
											CHANNELS 3 Xrotation Yrotation Zrotation
											JOINT mixamorig:LeftHandRing4
											{
												OFFSET 6.517899 0.000000 0.000000
												CHANNELS 3 Xrotation Yrotation Zrotation
												End Site
												{
													OFFSET -1.637299 6.232208 0.980890
												}
											}
										}
									}
								}
								JOINT mixamorig:LeftHandPinky1
								{
									OFFSET 20.463791 -0.302338 -8.562233
									CHANNELS 3 Xrotation Yrotation Zrotation
									JOINT mixamorig:LeftHandPinky2
									{
										OFFSET 6.908646 0.000000 0.000000
										CHANNELS 3 Xrotation Yrotation Zrotation
										JOINT mixamorig:LeftHandPinky3
										{
											OFFSET 4.622849 0.000000 0.000000
											CHANNELS 3 Xrotation Yrotation Zrotation
											JOINT mixamorig:LeftHandPinky4
											{
												OFFSET 5.216080 0.000000 0.000000
												CHANNELS 3 Xrotation Yrotation Zrotation
												End Site
												{
													OFFSET -0.606308 5.116241 0.814926
												}
											}
										}
									}
								}
							}
						}
					}
				}
				JOINT mixamorig:RightShoulder
				{
					OFFSET -12.001300 18.284088 1.348900
					CHANNELS 3 Xrotation Yrotation Zrotation
					JOINT mixamorig:RightArm
					{
						OFFSET -25.308500 -0.751312 -5.164599
						CHANNELS 3 Xrotation Yrotation Zrotation
						JOINT mixamorig:RightForeArm
						{
							OFFSET -54.684429 0.000000 0.000000
							CHANNELS 3 Xrotation Yrotation Zrotation
							JOINT mixamorig:RightHand
							{
								OFFSET -55.150291 0.000000 0.000000
								CHANNELS 3 Xrotation Yrotation Zrotation
								JOINT mixamorig:RightHandMiddle1
								{
									OFFSET -23.317566 0.000000 0.000000
									CHANNELS 3 Xrotation Yrotation Zrotation
									JOINT mixamorig:RightHandMiddle2
									{
										OFFSET -6.378403 0.000000 0.000000
										CHANNELS 3 Xrotation Yrotation Zrotation
										JOINT mixamorig:RightHandMiddle3
										{
											OFFSET -6.148193 0.000000 0.000000
											CHANNELS 3 Xrotation Yrotation Zrotation
											JOINT mixamorig:RightHandMiddle4
											{
												OFFSET -6.583389 0.000000 0.000000
												CHANNELS 3 Xrotation Yrotation Zrotation
												End Site
												{
													OFFSET 1.171692 6.395905 1.029786
												}
											}
										}
									}
								}
								JOINT mixamorig:RightHandThumb1
								{
									OFFSET -7.190521 -3.860474 5.435846
									CHANNELS 3 Xrotation Yrotation Zrotation
									JOINT mixamorig:RightHandThumb2
									{
										OFFSET -6.567429 -3.791718 3.791708
										CHANNELS 3 Xrotation Yrotation Zrotation
										JOINT mixamorig:RightHandThumb3
										{
											OFFSET -6.062469 -3.500153 3.500166
											CHANNELS 3 Xrotation Yrotation Zrotation
											JOINT mixamorig:RightHandThumb4
											{
												OFFSET -4.792618 -2.767029 2.767022
												CHANNELS 3 Xrotation Yrotation Zrotation
												End Site
												{
													OFFSET -0.100327 6.053253 1.276754
												}
											}
										}
									}
								}
								JOINT mixamorig:RightHandIndex1
								{
									OFFSET -23.048981 -0.310791 4.992554
									CHANNELS 3 Xrotation Yrotation Zrotation
									JOINT mixamorig:RightHandIndex2
									{
										OFFSET -6.227539 0.000000 0.000000
										CHANNELS 3 Xrotation Yrotation Zrotation
										JOINT mixamorig:RightHandIndex3
										{
											OFFSET -6.095047 0.000000 0.000000
											CHANNELS 3 Xrotation Yrotation Zrotation
											JOINT mixamorig:RightHandIndex4
											{
												OFFSET -5.484772 0.000000 0.000000
												CHANNELS 3 Xrotation Yrotation Zrotation
												End Site
												{
													OFFSET 1.420593 5.237305 0.797056
												}
											}
										}
									}
								}
								JOINT mixamorig:RightHandRing1
								{
									OFFSET -22.246323 0.020569 -3.963762
									CHANNELS 3 Xrotation Yrotation Zrotation
									JOINT mixamorig:RightHandRing2
									{
										OFFSET -6.322128 0.000000 0.000000
										CHANNELS 3 Xrotation Yrotation Zrotation
										JOINT mixamorig:RightHandRing3
										{
											OFFSET -5.900024 0.000000 0.000000
											CHANNELS 3 Xrotation Yrotation Zrotation
											JOINT mixamorig:RightHandRing4
											{
												OFFSET -6.518356 0.000000 0.000000
												CHANNELS 3 Xrotation Yrotation Zrotation
												End Site
												{
													OFFSET 1.636398 6.232697 0.982186
												}
											}
										}
									}
								}
								JOINT mixamorig:RightHandPinky1
								{
									OFFSET -20.411011 -0.303314 -8.561701
									CHANNELS 3 Xrotation Yrotation Zrotation
									JOINT mixamorig:RightHandPinky2
									{
										OFFSET -6.907349 0.000000 0.000000
										CHANNELS 3 Xrotation Yrotation Zrotation
										JOINT mixamorig:RightHandPinky3
										{
											OFFSET -4.623840 0.000000 0.000000
											CHANNELS 3 Xrotation Yrotation Zrotation
											JOINT mixamorig:RightHandPinky4
											{
												OFFSET -5.218353 0.000000 0.000000
												CHANNELS 3 Xrotation Yrotation Zrotation
												End Site
												{
													OFFSET 0.602097 5.118835 0.816273
												}
											}
										}
									}
								}
							}
						}
					}
				}
			}
		}
	}
	JOINT mixamorig:LeftUpLeg
	{
		OFFSET 18.168400 -13.561905 -0.039000
		CHANNELS 3 Xrotation Yrotation Zrotation
		JOINT mixamorig:LeftLeg
		{
			OFFSET 0.577358 -80.825211 -3.695000
			CHANNELS 3 Xrotation Yrotation Zrotation
			JOINT mixamorig:LeftFoot
			{
				OFFSET -0.577356 -83.370262 -6.520700
				CHANNELS 3 Xrotation Yrotation Zrotation
				JOINT mixamorig:LeftToeBase
				{
					OFFSET 0.750401 -20.798306 25.135401
					CHANNELS 3 Xrotation Yrotation Zrotation
					JOINT mixamorig:LeftToe_End
					{
						OFFSET -0.000500 0.001200 19.917799
						CHANNELS 3 Xrotation Yrotation Zrotation
						End Site
						{
							OFFSET 0.000000 19.917805 0.000000
						}
					}
				}
			}
		}
	}
	JOINT mixamorig:RightUpLeg
	{
		OFFSET -18.162500 -13.585098 -0.041000
		CHANNELS 3 Xrotation Yrotation Zrotation
		JOINT mixamorig:RightLeg
		{
			OFFSET -0.595024 -80.945297 -3.631900
			CHANNELS 3 Xrotation Yrotation Zrotation
			JOINT mixamorig:RightFoot
			{
				OFFSET 0.595024 -83.218193 -6.561200
				CHANNELS 3 Xrotation Yrotation Zrotation
				JOINT mixamorig:RightToeBase
				{
					OFFSET -0.753601 -20.807106 25.115000
					CHANNELS 3 Xrotation Yrotation Zrotation
					JOINT mixamorig:RightToe_End
					{
						OFFSET 0.000299 0.001700 19.918200
						CHANNELS 3 Xrotation Yrotation Zrotation
						End Site
						{
							OFFSET 0.000000 19.918203 0.000000
						}
					}
				}
			}
		}
	}
}
MOTION
Frames: 4
Frame Time: 0.033333
-3.086843 185.438095 -2.808090 -19.697934 -6.644186 -1.867294 16.335091 14.274386 -2.746275 4.284646 6.752464 -2.631306 4.007760 6.868689 -2.551426 11.082577 2.052632 -5.799043 30.244248 4.233431 -13.132894 0.000001 0.000000 0.000002 0.000001 0.000000 0.000002 0.000001 0.000000 0.000002 1.563565 -18.060916 -11.272283 -59.613713 -26.446762 -47.203232 -0.000002 -149.816566 0.000025 3.035899 6.852625 31.703979 -0.000005 -0.001926 0.015988 1.149036 3.813385 -33.526441 0.292818 1.990309 -16.736093 -0.000003 -0.000002 -0.000003 -1.540046 3.690178 6.142352 6.376460 41.437139 2.832540 0.814543 18.278742 4.051082 -0.000001 -0.000000 -0.000004 -0.022938 -4.659849 -0.563596 1.147979 3.811749 -33.510414 0.292790 1.990314 -16.736091 -0.000005 0.000001 0.000001 -0.000002 0.000002 0.000004 1.147971 3.811784 -33.510387 0.292819 1.990308 -16.736086 -0.000005 -0.000001 -0.000001 -0.113276 10.266723 1.273584 1.161295 -0.252012 -33.938920 0.292800 1.990322 -16.736110 -0.000001 -0.000000 0.000001 15.665637 32.376084 -19.293073 -67.030056 20.398826 35.773457 0.000002 150.000038 -0.000015 -10.951968 -26.465740 -38.807605 0.000006 -0.000008 0.000008 0.463733 -2.501206 21.004228 0.116837 -1.271885 10.497046 0.000001 0.000003 -0.000002 -21.328842 13.450705 -6.362115 6.184908 -26.551213 -1.343176 7.727595 -33.082759 -8.788633 -0.000003 0.000000 0.000001 -0.029406 5.249318 0.641546 0.463732 -2.501171 21.004223 0.116841 -1.271901 10.497068 0.000003 -0.000002 0.000001 0.000003 -0.000007 0.000004 0.463735 -2.501209 21.004242 0.116840 -1.271883 10.497041 -0.000005 0.000000 0.000001 -0.066180 -7.858271 -0.963782 0.463741 -2.501189 21.004240 0.116840 -1.271893 10.497044 0.000000 0.000002 -0.000004 -9.448044 16.177469 21.432251 40.389340 5.617707 3.223241 -10.175343 2.237646 -15.883740 -0.741375 -0.000005 0.000003 -0.000000 0.000000 -0.000000 -11.679253 -11.600649 -12.157884 43.647474 -2.450255 -10.195755 -12.824087 -2.051983 13.799578 -2.541490 -0.000007 -0.000002 -0.000000 -0.000000 0.000000 
-3.459383 185.752472 0.558228 -19.432819 -0.089744 -0.644695 13.532735 15.830384 -1.004400 3.281447 7.113058 -2.242042 2.985325 7.234469 -2.088160 11.082576 2.052630 -5.799045 30.244248 4.233432 -13.132892 -0.000001 0.000000 -0.000002 -0.000001 0.000000 -0.000002 -0.000001 0.000000 -0.000002 1.563565 -18.060919 -11.272282 -59.469132 -26.389088 -47.169918 0.000011 -149.724495 0.000031 3.089952 6.626507 31.712299 -0.000002 -0.001924 0.015985 1.149037 3.813383 -33.526438 0.292812 1.990308 -16.736088 0.000002 -0.000002 -0.000001 -1.540047 3.690184 6.142349 6.376466 41.437142 2.832534 0.814539 18.278746 4.051076 0.000002 0.000002 0.000001 -0.022931 -4.659849 -0.563600 1.147981 3.811748 -33.510411 0.292791 1.990312 -16.736093 -0.000000 -0.000002 -0.000003 0.000000 0.000004 0.000003 1.147976 3.811786 -33.510380 0.292822 1.990307 -16.736089 -0.000001 -0.000003 -0.000002 -0.113273 10.266725 1.273583 1.161294 -0.252011 -33.938916 0.292803 1.990325 -16.736105 0.000002 0.000000 0.000002 15.665635 32.376087 -19.293077 -66.860066 20.205021 35.725964 0.000003 150.000038 -0.000014 -10.907850 -26.220147 -38.752622 0.000009 -0.000012 0.000010 0.463731 -2.501205 21.004227 0.116833 -1.271885 10.497054 0.000000 -0.000002 0.000000 -21.330886 13.450775 -6.362062 6.185646 -26.560295 -1.343637 7.727557 -33.081458 -8.788748 0.000000 0.000002 0.000001 -0.029407 5.249321 0.641543 0.463731 -2.501171 21.004220 0.116840 -1.271902 10.497069 -0.000002 -0.000003 0.000001 0.000005 -0.000010 0.000001 0.463728 -2.501208 21.004244 0.116835 -1.271883 10.497041 0.000002 -0.000000 0.000001 -0.066177 -7.858271 -0.963782 0.463740 -2.501190 21.004251 0.116834 -1.271893 10.497048 -0.000004 0.000006 0.000002 -9.543267 12.101515 20.458691 40.660061 4.178354 2.826161 -10.674341 1.720798 -15.226785 -1.450918 -0.000021 0.000003 0.000000 0.000002 0.000000 -9.155930 -14.968737 -12.734943 43.327418 -2.997182 -10.153928 -14.443171 -4.807940 12.735559 -3.573233 -0.000008 -0.000000 -0.000000 0.000001 -0.000000 
-3.801905 186.061295 3.469376 -20.056229 4.927793 0.185187 11.816434 16.262134 -0.160322 2.651493 7.180712 -2.054198 2.349085 7.296795 -1.864981 11.082578 2.052635 -5.799044 30.244252 4.233432 -13.132893 -0.000000 -0.000002 0.000001 -0.000000 -0.000002 0.000001 -0.000000 -0.000002 0.000001 1.563565 -18.060912 -11.272285 -59.335704 -26.396395 -47.169170 0.000011 -149.656562 0.000007 3.194125 6.475742 31.713733 -0.000002 -0.001930 0.015985 1.149036 3.813379 -33.526434 0.292817 1.990313 -16.736091 -0.000000 0.000003 0.000004 -1.540045 3.690181 6.142349 6.376461 41.437149 2.832538 0.814544 18.278747 4.051077 -0.000002 -0.000000 0.000004 -0.022931 -4.659851 -0.563597 1.147977 3.811748 -33.510411 0.292795 1.990311 -16.736089 -0.000003 0.000001 -0.000000 -0.000001 -0.000003 0.000006 1.147970 3.811792 -33.510387 0.292823 1.990304 -16.736094 -0.000000 0.000001 -0.000000 -0.113270 10.266718 1.273583 1.161299 -0.252009 -33.938923 0.292803 1.990323 -16.736112 -0.000003 0.000001 0.000002 15.665635 32.376087 -19.293078 -66.735832 20.029313 35.677715 0.000008 150.000038 -0.000016 -10.898200 -26.013069 -38.709155 0.000000 -0.000009 0.000009 0.463734 -2.501207 21.004227 0.116840 -1.271886 10.497043 0.000002 0.000001 -0.000002 -21.332984 13.450836 -6.362021 6.186434 -26.569620 -1.344112 7.727520 -33.080140 -8.788874 -0.000004 -0.000002 0.000003 -0.029414 5.249320 0.641545 0.463730 -2.501171 21.004218 0.116840 -1.271908 10.497069 -0.000001 -0.000003 -0.000002 -0.000002 -0.000010 0.000005 0.463731 -2.501211 21.004244 0.116840 -1.271883 10.497041 0.000001 0.000002 0.000002 -0.066185 -7.858270 -0.963782 0.463734 -2.501189 21.004247 0.116838 -1.271895 10.497039 0.000000 0.000001 0.000002 -8.483791 8.394350 19.897249 40.605666 4.039016 2.100677 -10.989554 1.041109 -14.944249 -1.783963 -0.000013 -0.000007 -0.000000 0.000000 0.000000 -5.960271 -16.689065 -11.959997 43.009387 -3.505624 -10.102302 -15.291443 -8.174444 11.171572 -4.838696 0.000017 0.000002 -0.000000 0.000001 0.000001 
-3.993595 186.207291 5.680237 -20.925883 7.927682 0.678436 10.857109 16.225504 0.071997 2.171690 7.147279 -1.946187 1.870009 7.252811 -1.736804 11.082578 2.052636 -5.799046 30.244248 4.233436 -13.132896 -0.000001 0.000000 -0.000000 -0.000001 0.000000 -0.000000 -0.000001 0.000000 -0.000000 1.563565 -18.060914 -11.272286 -59.220691 -26.421453 -47.177653 0.000003 -149.606660 0.000026 3.300634 6.367158 31.713169 0.000001 -0.001929 0.015985 1.149036 3.813380 -33.526441 0.292812 1.990308 -16.736086 0.000001 0.000003 0.000003 -1.540047 3.690179 6.142348 6.376463 41.437142 2.832541 0.814542 18.278747 4.051077 -0.000001 0.000001 -0.000002 -0.022935 -4.659850 -0.563602 1.147975 3.811751 -33.510411 0.292792 1.990314 -16.736093 0.000000 -0.000001 0.000000 -0.000002 0.000001 0.000003 1.147975 3.811787 -33.510383 0.292822 1.990309 -16.736089 0.000002 -0.000004 -0.000002 -0.113274 10.266724 1.273586 1.161296 -0.252010 -33.938920 0.292800 1.990324 -16.736110 -0.000002 0.000000 0.000001 15.665637 32.376087 -19.293075 -66.639676 19.883985 35.637058 0.000004 150.000038 -0.000015 -10.896744 -25.845222 -38.674502 0.000002 -0.000006 0.000010 0.463731 -2.501205 21.004228 0.116841 -1.271891 10.497047 0.000005 0.000001 -0.000002 -21.335144 13.450925 -6.361973 6.187208 -26.579278 -1.344620 7.727484 -33.078746 -8.789003 -0.000002 -0.000004 0.000003 -0.029411 5.249321 0.641546 0.463733 -2.501171 21.004222 0.116843 -1.271904 10.497072 0.000003 0.000002 0.000005 0.000005 -0.000010 0.000007 0.463732 -2.501207 21.004240 0.116840 -1.271883 10.497047 -0.000002 0.000001 0.000005 -0.066180 -7.858270 -0.963780 0.463738 -2.501186 21.004247 0.116839 -1.271894 10.497045 -0.000001 -0.000001 0.000001 -7.238745 6.154130 19.894758 40.552633 4.078776 1.528827 -11.406781 0.224425 -14.890919 -1.890287 0.000012 -0.000002 -0.000000 -0.000000 -0.000000 -3.149809 -17.324582 -10.841481 42.624168 -3.696266 -10.273769 -15.305834 -10.954748 10.872991 -5.596375 0.000012 -0.000008 -0.000000 -0.000002 -0.000000 
